<?xml version="1.0" standalone="no"?><!DOCTYPE svg PUBLIC "-//W3C//DTD SVG 1.1//EN" "http://www.w3.org/Graphics/SVG/1.1/DTD/svg11.dtd"><svg t="1520501091577" class="icon" style="" viewBox="0 0 1024 1024" version="1.1" xmlns="http://www.w3.org/2000/svg" p-id="7829" xmlns:xlink="http://www.w3.org/1999/xlink" width="32" height="32"><defs><style type="text/css"></style></defs><path d="M768 768 512 768 512 520.96C483.84 546.986667 446.72 563.2 405.333333 563.2 318.293333 563.2 247.466667 492.373333 247.466667 405.333333 247.466667 318.293333 318.293333 247.466667 405.333333 247.466667 492.373333 247.466667 563.2 318.293333 563.2 405.333333 563.2 446.72 546.986667 483.84 520.96 512L768 512M810.666667 128 213.333333 128C165.973333 128 128 165.973333 128 213.333333L128 810.666667C128 857.6 166.4 896 213.333333 896L810.666667 896C857.6 896 896 857.6 896 810.666667L896 213.333333C896 165.973333 857.6 128 810.666667 128Z" p-id="7830" fill="#000000"></path></svg>