<?xml version="1.0" standalone="no"?><!DOCTYPE svg PUBLIC "-//W3C//DTD SVG 1.1//EN" "http://www.w3.org/Graphics/SVG/1.1/DTD/svg11.dtd"><svg t="1520500898069" class="icon" style="" viewBox="0 0 1024 1024" version="1.1" xmlns="http://www.w3.org/2000/svg" p-id="1843" xmlns:xlink="http://www.w3.org/1999/xlink" width="32" height="32"><defs><style type="text/css"></style></defs><path d="M112.0256 687.9232c-44.1344 0-79.9744 35.84-79.9744 79.9744s35.84 79.9744 79.9744 79.9744c44.1344 0 79.9744-35.84 79.9744-79.9744 0-44.032-35.84-79.872-79.9744-79.9744z m287.9488-223.9488c-44.1344 0-79.9744 35.84-79.9744 79.9744s35.84 79.9744 79.9744 79.9744 79.9744-35.84 79.9744-79.9744c0-44.1344-35.7376-79.9744-79.9744-79.9744z m192-287.9488c-44.1344 0-79.9744 35.84-79.9744 79.9744s35.84 79.9744 79.9744 79.9744 79.9744-35.84 79.9744-79.9744c0-44.1344-35.84-79.9744-79.9744-79.9744z m320 192c-44.1344 0-79.9744 35.84-79.9744 79.9744s35.84 79.9744 79.9744 79.9744 79.9744-35.84 79.9744-79.9744c0-44.2368-35.84-79.9744-79.9744-79.9744z" fill="#000000" p-id="1844"></path><path d="M399.9744 463.9744c-44.1344 0-79.9744 35.84-79.9744 79.9744s35.84 79.9744 79.9744 79.9744 79.9744-35.84 79.9744-79.9744c0-44.1344-35.7376-79.9744-79.9744-79.9744z m512-95.9488c-44.1344 0-79.9744 35.84-79.9744 79.9744s35.84 79.9744 79.9744 79.9744 79.9744-35.84 79.9744-79.9744c0-44.2368-35.7376-79.9744-79.9744-79.9744z" fill="#000000" p-id="1845"></path><path d="M607.9488 256c-8.8064 0-15.9744 7.168-15.9744 15.9744s7.168 15.9744 15.9744 15.9744 15.9744-7.168 15.9744-15.9744-7.168-15.9744-15.9744-15.9744z m384 159.9488h-79.9744c-8.8064 0-15.9744 7.168-15.9744 15.9744s7.168 15.9744 15.9744 15.9744h79.9744c8.8064 0 15.9744-7.168 15.9744-15.9744s-7.168-15.9744-15.9744-15.9744z m-591.9744 128h-79.9744c-8.8064 0-15.9744 7.168-15.9744 15.9744s7.168 15.9744 15.9744 15.9744h79.9744c8.8064 0 15.9744-7.168 15.9744-15.9744s-7.168-15.9744-15.9744-15.9744zM159.9488 735.9488H128c-8.8064 0-15.9744 7.168-15.9744 15.9744s7.168 15.9744 15.9744 15.9744h31.9488c8.8064 0 15.9744-7.168 15.9744-15.9744s-7.0656-15.872-15.9744-15.9744z" fill="#000000" p-id="1846"></path><path d="M911.9744 335.9744c-27.9552 0-54.8864 10.4448-75.5712 29.2864l-135.8848-81.5104c15.36-59.904-20.6848-121.0368-80.5888-136.3968-59.904-15.36-121.0368 20.6848-136.3968 80.5888-8.9088 34.816-0.6144 71.7824 22.3232 99.4304l-73.0112 109.3632C373.76 418.816 311.0912 451.9936 292.864 511.1808c-7.3728 24.064-6.4512 49.9712 2.6624 73.4208L177.0496 676.864c-50.2784-35.7376-120.1152-23.9616-155.8528 26.3168C-14.5408 753.4592-2.7648 823.296 47.5136 859.0336s120.1152 23.9616 155.8528-26.3168c21.8112-30.72 26.7264-70.2464 13.1072-105.3696l118.4768-92.16c50.2784 35.9424 120.32 24.3712 156.2624-26.0096 29.5936-41.3696 27.5456-97.5872-5.0176-136.704L559.104 363.1104c37.9904 11.6736 79.2576 2.3552 108.544-24.3712l135.8848 81.5104c-15.36 59.904 20.6848 121.0368 80.5888 136.3968s121.0368-20.6848 136.3968-80.5888-20.6848-121.0368-80.5888-136.3968c-9.1136-2.3552-18.5344-3.584-27.9552-3.6864zM112.0256 815.9232c-26.4192-0.1024-47.8208-21.7088-47.616-48.128 0.1024-26.4192 21.7088-47.8208 48.128-47.616 26.3168 0.1024 47.616 21.504 47.616 47.9232-0.1024 26.4192-21.6064 47.8208-48.128 47.8208zM399.9744 591.872c-26.4192-0.1024-47.8208-21.7088-47.616-48.128 0.1024-26.4192 21.7088-47.8208 48.128-47.616 26.3168 0.1024 47.616 21.504 47.616 47.9232 0 26.4192-21.6064 47.9232-48.128 47.8208z m192-287.9488c-26.4192-0.1024-47.8208-21.7088-47.616-48.128 0.1024-26.4192 21.7088-47.8208 48.128-47.616 26.3168 0.1024 47.616 21.504 47.616 47.9232 0 26.4192-21.6064 47.8208-48.128 47.8208z m320 192c-26.4192-0.1024-47.8208-21.7088-47.616-48.128 0.1024-26.4192 21.7088-47.8208 48.128-47.616 26.3168 0.1024 47.616 21.504 47.616 47.9232-0.1024 26.4192-21.6064 47.8208-48.128 47.8208z" fill="#000000" p-id="1847"></path></svg>